<svg xmlns="http://www.w3.org/2000/svg" viewBox="0 0 1613 1063.5"><title>logo</title><path d="M314.2,57.1c-5.2,23-9.9,46-14.3,69.1s-25,37.8-46.8,34.2L134.9,140.3c-21.8-3.6-36.1-26.7-31.4-51.4s9.9-50.3,15.6-75.4L58.7,0a2436.8,2436.8,0,0,0,0,1063.5l59.5-13.3c-3.5-15.8-6.9-31.6-10.1-47.5-5-24.6,9.1-47.9,30.8-51.7l118-21.6c21.7-3.8,42.6,11.3,47.2,33.7,2.9,14.5,6,29,9.2,43.4l60.4-13.4a2115.2,2115.2,0,0,1,0-922.7ZM278.9,811.2c2.9,22.6-12,43.7-33.8,47L126.5,875.8c-21.9,3.4-42.6-14.1-45.8-39Q67.4,733.6,63,629.7c-1-25,16.5-45.6,38.6-46.1L221.5,581c22.1-.4,40.3,17.7,41.3,40.5Q266.7,716.6,278.9,811.2ZM262.7,468c-.7,22.8-18.7,41.2-40.8,41L102,507.8c-22.1-.2-39.9-20.6-39.1-45.6,2-69.2,7-138.4,15.1-207.2,2.9-24.9,23.5-42.6,45.3-39.5l118.9,16.2c21.8,3.1,37,23.9,34.4,46.6Q265.5,372.8,262.7,468Z" fill="#fff"/><path d="M455.9,216l2.3-18.9.3-10a10.8,10.8,0,0,1,1.6-6.4l3.2-4.5c5.8-4.5,9.6-7,11.3-7.7s4.2-.6,7.5.2,5.3,1.4,5.9,2.1l3.6,2.9a5.3,5.3,0,0,1,2.9,5.1c1,1.3,1.4,2.2.9,2.9s-3.4,14.1-6.4,37.9l-2.6,43.6-1.6,8.7c0,2.8.1,4.4.4,4.8v5.8a48.4,48.4,0,0,1-1.3,8,9.5,9.5,0,0,1-.7,3.5c.5.5.7,2.1.7,5s-.3,4.7-1,5.3a84.4,84.4,0,0,0-.6,9.8,53.3,53.3,0,0,0,.8,9.6,46.4,46.4,0,0,1,.5,9.8l1.2,12.2v4.8a75.4,75.4,0,0,1,.7,9.3l1.6,16.7,1.3,8.7a22.3,22.3,0,0,1-.8,10.6c-1.2,3.4-3,5.5-5.3,6.4-6.7,2.8-13.9,1-21.9-5.4h-2.5a19.7,19.7,0,0,1-3.6-7.1,4.2,4.2,0,0,1-2.2-4.5,8.9,8.9,0,0,0-1.3-5.8,8.5,8.5,0,0,1-1.6-4.5,41,41,0,0,0-.6-7.4l.3-2.5a3.8,3.8,0,0,1-1-2.9l-.6-5.8v-2.6a23.9,23.9,0,0,0-.2-3.5,7.5,7.5,0,0,1,.8-3.2q-.9-1.3-.3-9.3c1.3-16.5,1.9-27.8,1.9-34l.3-7.7v-9.4c.3-5.1.4-11.6.5-19.5s.5-12.2,1.2-12.9l-.4-2.9a126.3,126.3,0,0,1,2.4-21C455.1,221.4,455.9,216.7,455.9,216Z" fill="#fff"/><path d="M540,186.5c14.4,0,24.4,2.9,30.2,8.7,0,3.6-2.4,11-7.4,22.1a19.1,19.1,0,0,1-4.1,8.7l-4.2,4.2a6.5,6.5,0,0,1-3.2.9q-11.5,2.8-18-4.5a10.3,10.3,0,0,0-3-2.9c-1.2-.6-2.1-2.5-2.8-5.7s-2.9-5-2.9-6.5c-.4-13.2,4.4-21.6,14.5-25Zm-2.5,75.8c2.1-1.1,7.1,0,15.1,3.2a13.8,13.8,0,0,0,3.8,2.5l5.2,4.2a6,6,0,0,1,1.2,4.2v28.2a100.6,100.6,0,0,1-.6,11.6v1.9q-.9,13.2,1.6,59.4c.6,6-.8,9.6-4.2,10.9s-6-.5-7-1.6a5.6,5.6,0,0,0-2.3-.6h-2.2l-2,.6a10.4,10.4,0,0,1-3.5-1.4,8.7,8.7,0,0,1-3.4-3.1,3.3,3.3,0,0,0-2.7-1.9,5.4,5.4,0,0,1-3.8-4.8c-3-5.8-4.6-9.2-4.7-10.3a10.1,10.1,0,0,0-1.1-3.5l-1.6-28a33.6,33.6,0,0,1,.6-7.3v-7.8c.2-2.3.4-6.6.7-13s.5-11.3.9-15.2c-.4-5.6-.6-9.3-.6-11.2a19.9,19.9,0,0,1,.3-4.2q-3.5-3.6.3-9.6a13.1,13.1,0,0,1,8.1-3.2Z" fill="#fff"/><path d="M595.6,296.3a136.6,136.6,0,0,1,.3-14.8l2.2-10.9,6.5-13.8,5.1-6.4c0-1.7,5.6-4.1,16.7-7.1h.3a54.5,54.5,0,0,1,11.1.7,30.6,30.6,0,0,1,14.6,6.2c4.7,3.5,7.9,6.5,9.6,8.8,4.5,9,6.4,17.4,5.8,25.1,0,2.1-1.1,4.7-3.2,7.7-.2.4-1.8,1.1-4.8,1.9a11.8,11.8,0,0,1-7.4.2,39,39,0,0,1-6.7-3.7c-2.6-1.7-3.8-4.4-3.6-8-1.9-2.2-2.3-5-1.3-8.4s.1-4.5-.9-5.8l-3.9-1.6c-1.3.5-2.5,2.4-3.7,5.8a41,41,0,0,0-1.7,12.5,45.4,45.4,0,0,0,6.7,24.4,42.4,42.4,0,0,0,7.7,8.4l5.8,7,8.3,7.7,6.1,8.4c1.5,1.5,3.6,4.7,6.3,9.8s4,9.5,4,13.4-1.2,9-3.5,15l-2.9,4.1c0,.5-1.2,1.9-3.5,4.2-6.5,6.4-13.4,10.4-20.9,11.9h-2.3a75.9,75.9,0,0,1-20.2-.3l-9.9-2.6a7.8,7.8,0,0,1-3.6-1.1,16.7,16.7,0,0,0-3.5-1.8c-4.9-3.2-7.9-5.8-9-7.7s-1.8-3.6-2.2-9c-1.5-3.2-1.2-7.6.9-13.1a23.1,23.1,0,0,1,1-7.4c4.1-4.7,9.3-5.8,15.7-3.2,2.2.8,3.2,2.5,3.2,5.1a56.3,56.3,0,0,0,1.2,6.6,34,34,0,0,0,3.7,10.4c1.7,3.2,4,4.8,7,4.8a15.4,15.4,0,0,0,9.3-3.5c3.4-6.6,5.2-10.3,5.2-10.9l.6-4.5c.4-3.2-.5-6.5-2.9-10a17.8,17.8,0,0,0-4.5-7.7l-4.8-7-4.8-4.5c-.9-.2-3.5-1.9-8-5.1a20.7,20.7,0,0,0-3.6-4.5,50.9,50.9,0,0,1-6.1-8.9,37.1,37.1,0,0,0-7.3-9.4C599.5,302.2,598.1,299.7,595.6,296.3Z" fill="#fff"/><path d="M689,261.9a51.9,51.9,0,0,0-1.3-5.4,13.1,13.1,0,0,1-1.6-5.8c0-1.7-.1-2.6-.3-2.6.4-4.9,2.3-8.6,5.8-11s8.2-3.1,14.4-1.8l10.3,3.8,14.7,3.6,7.4-21.2c1.9-3.4,3-5.8,3.1-7.1a14.5,14.5,0,0,1,1.1-4.2,28.3,28.3,0,0,1,2.6-6.7l1.2-5.1c1.5-2.8,4.5-4.6,9-5.5,2.6-1.1,4.8-1.1,6.8,0,5.8.2,10.1,2.4,13.1,6.4a24.2,24.2,0,0,1-.9,5.2,51.7,51.7,0,0,0-1.6,9.3l-8.1,32.1h2.6l8-.3a20.2,20.2,0,0,0,3.6.3,103.5,103.5,0,0,1,10.9-2.1l5.1-.8a22.8,22.8,0,0,0,5.5,0,15.5,15.5,0,0,1,9.3,2.7c3.2,2.1,4.8,4.5,4.8,7.4s-2,5.4-6.1,7.5l-2.9,3.9a47.2,47.2,0,0,0-9,4.5q-4.5,2.5-36.9,8.7L757.4,294a8.4,8.4,0,0,1,.6,2.6c-1.5,9.2-2.8,20.7-3.9,34.3.3,5,.4,8.3.4,10v8.7a13.1,13.1,0,0,0-.4,4.1,107.7,107.7,0,0,0,2,18.8c1.3,7.2,2,11.5,2.2,13a39.4,39.4,0,0,1,.3,5.2c-.2,3.6-1.7,5.9-4.5,7-6.8,0-12.6-1.2-17.3-3.5-3.8-.7-5.6-1.5-5.1-2.6a24.6,24.6,0,0,1-5.2-6.1c0-1.7-.1-2.7-.3-2.9s-2.2-2.3-2.2-5.1a5.4,5.4,0,0,1-.7-2.3l-2.2-8c-1.9-2.5-2.6-6-1.9-10.3a8.7,8.7,0,0,0-1-3.2v-2.2a19.2,19.2,0,0,1,.3-3.9c-1.1-6-.9-13.1.3-21.3s2.2-14.2,2.6-17.8a5.6,5.6,0,0,1,.6-4.2,55.8,55.8,0,0,1,1.3-9l2.9-18.3a12.6,12.6,0,0,0-3.8-.6q-17.1-3.9-17.7-4.8l-3.8-2.3c-1.5,0-3.7-.8-6.5-2.4S689.8,263.6,689,261.9Z" fill="#fff"/><path d="M836.5,249.4a9.5,9.5,0,0,0,4.2-.8,37.9,37.9,0,0,1,5.4-2.1c2.7-.8,9-.8,19.1,0q8.4,1.6,18.6,8.4a42.9,42.9,0,0,1,17,14.1c6,15.8,9.4,29.6,10,41.4.4,18-1.3,32.9-5.1,44.6-5.4,13.5-8.9,21.4-10.6,23.8s-2.2,6.4-5.2,10.9a8.5,8.5,0,0,0-2.5.3q0,.3-1.8,2.1a6.7,6.7,0,0,1-5,1.8c-2.8.6-4.4,1.2-5,1.7s-1.6.8-3.3.8l-8.1.7h-8.6c-5.8,0-10.4-.8-13.8-2.3l-9.7-6.4-3.2-3.8a1,1,0,0,1-1.1-.9,5.8,5.8,0,0,0-.5-1.4c-1.9-1.5-2.9-3.2-2.9-5.1-2.3-3.7-3.5-6.2-3.5-7.7a4.1,4.1,0,0,0-1-3.2c0-3.3-.9-8-2.8-14.2l-.7-4.5v-3.5a46.9,46.9,0,0,0-2.5-11.2c.4-.5.4-1.6,0-3.6q0-7.4.3-9.9l-1-4.2a5.9,5.9,0,0,0,.8-3.5,14.7,14.7,0,0,1,.8-4.8v-2.3l1.3-11.2a8.2,8.2,0,0,1,.6-3.5v-2.3c.5,0,.8-1.1,1-3.2l1.6-2.6.3-2.5a6.9,6.9,0,0,0-.3-2l1.6-4.8c0-.4.8-1.7,2.3-3.8s.7-2.7,2.2-4.8A6.9,6.9,0,0,1,827,260c0-1.9,1.2-4.4,3.5-7.4S834.7,249.4,836.5,249.4Zm45.4,60.7-1.6-8.4a6.8,6.8,0,0,0-.5-2.2,35.9,35.9,0,0,1-1.1-4.8,40.4,40.4,0,0,1-3.5-2.9l-1.6-2.6-1-2.9a3.2,3.2,0,0,1-1.8-2.7,4.3,4.3,0,0,0-1.3-2.9,10.9,10.9,0,0,1-1.7-2.2,4,4,0,0,0-1.3-1.5c-1.9-1.3-4.5-1.4-7.7-.3s-5.1,2.6-5.8,4.5c-3.6,8.1-5.4,13.4-5.4,15.7-3,10.3-3.9,17.6-2.6,21.8-.4,6.9.4,16.3,2.6,28.3v3.5a46.4,46.4,0,0,1,5.4,10.3c2.1,2.8,3.6,4.8,4.3,5.9l1.5,2.1a18.7,18.7,0,0,1,3.8,3.2,33,33,0,0,0,3.6-1.9v-2.2a15.2,15.2,0,0,1,2.9-2c-.3,0,.5-.7,2.2-2.2l1.6-1.6q4.8-10.4,4.8-10.8a16.2,16.2,0,0,0-.3-2.1c-.8-1.9-.3-3.4,1.6-4.5l3.9-11.2v-1.9c.4-1.3.2-2.3-.7-2.9v-2.2a6.8,6.8,0,0,0,.7-2.6c.8-3.4,1.2-5.5,1.1-6.1a6.6,6.6,0,0,1,.1-2.4,5.1,5.1,0,0,1,1-2.1C885.8,312.4,884.7,311.4,881.9,310.1Z" fill="#fff"/><path d="M945.1,297.6a10.4,10.4,0,0,1,2-4.9l-.4-1.9c.9-3,1.4-4.7,1.6-5.1s.6-.4,1,0a1.9,1.9,0,0,1,.3-1.9,47.7,47.7,0,0,1,3.1-6.8,48,48,0,0,0,2.4-4.8c1.3-3.6,3.3-6,6.1-7.1,0-1.7,3-2.8,9-3.5,6.8-2.3,12.4-2.8,16.7-1.3,2.1-1.3,5.3-.7,9.6,1.6a52.4,52.4,0,0,1,10.3,5.8,34.7,34.7,0,0,1,8,7.1,9.7,9.7,0,0,1,5.8,6.4c6,14.3,9,27,9,37.9l-.7,3.5c0,3-.3,4.9-.8,5.6a6.3,6.3,0,0,0-.8,3.4c.4.2.4,1.2,0,2.9s-1.7,8-5.1,20.8l-5.2,10.6c0,.5-.5,1.2-1.6,2.3v1.9a6.1,6.1,0,0,1-1.6,2.6,36.1,36.1,0,0,1-6.4,9.6,79,79,0,0,1-8.7,12.2l-2.5,3.5-3.9-.3c-.6,1.1-1.2,1.6-1.7,1.6a21.2,21.2,0,0,1-4.7-1.3l2.6-.3a8.1,8.1,0,0,1-4-.3,7.4,7.4,0,0,0-2.8-.6c-4-2.2-6.9-2.9-8.6-2.3s-4.1-.9-9.7-2.6l-9-1.6-7-2.5a34.4,34.4,0,0,1-5.5-3.9,7.8,7.8,0,0,1-.9-3.2l-2-6.4a20.8,20.8,0,0,0-.6-3.2v-8.4a32.3,32.3,0,0,0,.6-6.1c-.4-1-.4-3.3,0-6.7v-3.5a22.3,22.3,0,0,1,.4-3.6c-.3-1-.1-3.4.3-7a93.4,93.4,0,0,0,.6-10,78.4,78.4,0,0,1,1.3-11.5c.7-1.5,1.1-4.3,1.3-8.2S943.9,299.3,945.1,297.6Zm22.2,34.3a144.5,144.5,0,0,0-1.6,20.9c0,6.4.4,10.9,1.3,13.5s.6,3.2,1.3,3.8a8,8,0,0,0,4.4,0q4.5-2,4.5-4.2c6.2-6,9.8-9.9,10.6-11.8a13.9,13.9,0,0,1,2-3.6,9,9,0,0,0,1.6-4.1,16.2,16.2,0,0,0,1.9-2.3c-.2-.6.2-2.5,1.3-5.5-.9-1.4-.8-2.6.1-3.3s1.5-3,1.5-6.6l1.3-10.3a10.7,10.7,0,0,1,.3-2.9,10.9,10.9,0,0,1,.1-4c.4-1.8.4-4.7.2-8.8s-1-6.7-2.2-8l-.7-2c-.4-1.4-2.1-2.5-5.1-3.2l-2.6-1.2c.7,1.2,0,3-1.9,5.1A112.3,112.3,0,0,0,967.3,331.9Z" fill="#fff"/><path d="M728.8,501.3l-17,422.2-84.6,5.7.7-222.6L589.7,886.1H557L527.7,725.6l-.4,186.3L441.6,916l3.7-397.5,95.4-5.7,37.8,190.4L629,501.3Z" fill="#fff"/><path d="M999.3,717.5a318,318,0,0,1-3.9,50.5,271.5,271.5,0,0,1-11.2,45.6,211.2,211.2,0,0,1-17.8,39,146.4,146.4,0,0,1-23.6,30.3,101.9,101.9,0,0,1-28.5,19.7,77,77,0,0,1-32.6,7,78.1,78.1,0,0,1-31.8-6.6,103.8,103.8,0,0,1-28.3-18.5,139.8,139.8,0,0,1-23.9-28.8,193.8,193.8,0,0,1-18.2-37.4,263.3,263.3,0,0,1-11.7-44.1,289.9,289.9,0,0,1-4.1-49.2,304.7,304.7,0,0,1,3.9-49,272.8,272.8,0,0,1,11.2-45.3,222,222,0,0,1,17.7-39.1,149,149,0,0,1,23.3-30.8,101.7,101.7,0,0,1,27.9-20.1,72.6,72.6,0,0,1,31.8-7.2,95.4,95.4,0,0,1,49,12.9c14.8,8.6,27.4,21,37.9,37s18.5,35.3,24.3,58.1S999.3,689.5,999.3,717.5ZM916.9,725a119.1,119.1,0,0,0-2.3-24,79.9,79.9,0,0,0-6.8-20.7,44,44,0,0,0-11-14.7,22.8,22.8,0,0,0-15.1-5.6,26.1,26.1,0,0,0-15.6,4.9,41.9,41.9,0,0,0-11.8,13.4,68,68,0,0,0-7.5,19.8,109.7,109.7,0,0,0-2.6,24,132,132,0,0,0,2.2,24.2,92.7,92.7,0,0,0,6.7,21.8,50.4,50.4,0,0,0,11,15.9,22.1,22.1,0,0,0,15.4,6,25.1,25.1,0,0,0,15.6-5.3,43.5,43.5,0,0,0,11.8-14.4,80.8,80.8,0,0,0,7.4-20.8A110.1,110.1,0,0,0,916.9,725Z" fill="#fff"/><path d="M1258.3,517.4l-67.9,400.3-92,8.1-83.5-404.4,87.9-12.7,35.6,235.9L1173,508.7Z" fill="#fff"/><path d="M1394.5,515.6,1374,907.3l-78.3,6.4v-390Z" fill="#fff"/><path d="M1613,505.9c-.7,18-1.4,35.8-2,53.5s-1.5,35.4-2.5,53.4l-78.6,6.4-1.9,36.2h55.3l-4.1,89.2-55.6,2.8-1.9,42h78.7c-.8,21.1-1.5,42.1-2.3,62.9s-1.6,41.6-2.2,62.5L1436,920.6l5.9-414.7Z" fill="#fff"/></svg>